<svg preserveAspectRatio="none" width="100%" height="100%" overflow="visible" style="display: block;" viewBox="0 0 20.25 18" fill="none" xmlns="http://www.w3.org/2000/svg">
<g id="Frame">
<g clip-path="url(#clip0_55_156)">
<path id="Vector" d="M11.25 3.375C11.25 3.67337 11.1315 3.95952 10.9205 4.1705C10.7095 4.38147 10.4234 4.5 10.125 4.5C9.82663 4.5 9.54048 4.38147 9.3295 4.1705C9.11853 3.95952 9 3.67337 9 3.375C9 3.07663 9.11853 2.79048 9.3295 2.5795C9.54048 2.36853 9.82663 2.25 10.125 2.25C10.4234 2.25 10.7095 2.36853 10.9205 2.5795C11.1315 2.79048 11.25 3.07663 11.25 3.375ZM11.9918 6.1875C12.9023 5.58281 13.5 4.54922 13.5 3.375C13.5 1.51172 11.9883 0 10.125 0C8.26172 0 6.75 1.51172 6.75 3.375C6.75 4.54922 7.34766 5.58281 8.2582 6.1875H7.875C7.25273 6.1875 6.75 6.69023 6.75 7.3125C6.75 7.93477 7.25273 8.4375 7.875 8.4375H9V15.75H7.3125C5.44922 15.75 3.9375 14.2383 3.9375 12.375V12.1605L4.18359 12.4066C4.51406 12.7371 5.04844 12.7371 5.37539 12.4066C5.70234 12.0762 5.70586 11.5418 5.37539 11.2148L3.41016 9.24609C3.07969 8.91563 2.54531 8.91563 2.21836 9.24609L0.246094 11.2148C-0.084375 11.5453 -0.084375 12.0797 0.246094 12.4066C0.576562 12.7336 1.11094 12.7371 1.43789 12.4066L1.68398 12.1605V12.375C1.68398 15.4828 4.20117 18 7.30898 18H10.1215H12.934C16.0418 18 18.559 15.4828 18.559 12.375V12.1605L18.8051 12.4066C19.1355 12.7371 19.6699 12.7371 19.9969 12.4066C20.3238 12.0762 20.3273 11.5418 19.9969 11.2148L18.0281 9.24609C17.6977 8.91563 17.1633 8.91563 16.8363 9.24609L14.8676 11.2148C14.5371 11.5453 14.5371 12.0797 14.8676 12.4066C15.198 12.7336 15.7324 12.7371 16.0594 12.4066L16.3055 12.1605V12.375C16.3055 14.2383 14.7937 15.75 12.9305 15.75H11.25V8.4375H12.375C12.9973 8.4375 13.5 7.93477 13.5 7.3125C13.5 6.69023 12.9973 6.1875 12.375 6.1875H11.9918Z" fill="var(--fill-0, #262626)"/>
</g>
</g>
<defs>
<clipPath id="clip0_55_156">
<path d="M0 0H20.25V18H0V0Z" fill="white"/>
</clipPath>
</defs>
</svg>
