<svg preserveAspectRatio="none" width="100%" height="100%" overflow="visible" style="display: block;" viewBox="0 0 22.5 18" fill="none" xmlns="http://www.w3.org/2000/svg">
<g id="Frame">
<g clip-path="url(#clip0_84_496)">
<path id="Vector" d="M11.25 1.125C10.9652 1.125 10.684 1.17422 10.4168 1.26914L0.555469 4.83047C0.221484 4.95352 0 5.26992 0 5.625C0 5.98008 0.221484 6.29648 0.555469 6.41953L2.59102 7.1543C2.01445 8.06133 1.6875 9.13359 1.6875 10.2621V11.25C1.6875 12.2484 1.30781 13.2785 0.903516 14.0906C0.675 14.5477 0.414844 14.9977 0.1125 15.4125C1.16415e-09 15.5637 -0.0316406 15.7605 0.0316406 15.9398C0.0949219 16.1191 0.242578 16.2527 0.425391 16.2984L2.67539 16.8609C2.82305 16.8996 2.98125 16.8715 3.11133 16.7906C3.24141 16.7098 3.33281 16.5762 3.36094 16.425C3.66328 14.9203 3.51211 13.5703 3.28711 12.6035C3.17461 12.1043 3.02344 11.5945 2.8125 11.127V10.2621C2.8125 9.20039 3.17109 8.19844 3.79336 7.39687C4.24687 6.85195 4.83398 6.4125 5.52305 6.1418L11.0426 3.97266C11.3309 3.86016 11.6578 4.00078 11.7703 4.28906C11.8828 4.57734 11.7422 4.9043 11.4539 5.0168L5.93438 7.18594C5.49844 7.3582 5.11523 7.62188 4.80234 7.94531L10.4133 9.97031C10.6805 10.0652 10.9617 10.1145 11.2465 10.1145C11.5312 10.1145 11.8125 10.0652 12.0797 9.97031L21.9445 6.41953C22.2785 6.3 22.5 5.98008 22.5 5.625C22.5 5.26992 22.2785 4.95352 21.9445 4.83047L12.0832 1.26914C11.816 1.17422 11.5348 1.125 11.25 1.125ZM4.5 14.3438C4.5 15.5848 7.52344 16.875 11.25 16.875C14.9766 16.875 18 15.5848 18 14.3438L17.4621 9.23203L12.4629 11.0391C12.0727 11.1797 11.6613 11.25 11.25 11.25C10.8387 11.25 10.4238 11.1797 10.0371 11.0391L5.03789 9.23203L4.5 14.3438Z" fill="var(--fill-0, black)"/>
</g>
</g>
<defs>
<clipPath id="clip0_84_496">
<path d="M0 0H22.5V18H0V0Z" fill="white"/>
</clipPath>
</defs>
</svg>
